<?xml version="1.0" standalone="no"?>
<!DOCTYPE svg PUBLIC "-//W3C//DTD SVG 20010904//EN"
 "http://www.w3.org/TR/2001/REC-SVG-20010904/DTD/svg10.dtd">
<svg version="1.0" xmlns="http://www.w3.org/2000/svg"
 width="1920.000000pt" height="1382.000000pt" viewBox="0 0 1920.000000 1382.000000"
 preserveAspectRatio="xMidYMid meet">

<g transform="translate(0.000000,1382.000000) scale(0.100000,-0.100000)"
fill="#000000" stroke="none">
<path d="M6950 9713 c252 -255 617 -628 934 -953 131 -135 274 -280 316 -322
l77 -78 212 0 c116 0 211 3 211 7 0 4 -67 75 -148 158 -81 82 -341 348 -577
590 -237 241 -511 522 -609 622 l-179 183 -221 0 -221 0 205 -207z"/>
<path d="M7400 9915 c0 -6 1251 -1337 1379 -1467 l86 -88 192 0 c105 0 194 3
196 8 4 7 -113 133 -998 1072 -209 222 -395 421 -413 442 l-34 38 -204 0
c-112 0 -204 -2 -204 -5z"/>
<path d="M7977 9886 c28 -33 422 -453 578 -616 44 -47 255 -271 469 -497 l387
-413 513 0 c440 0 520 -2 567 -16 272 -80 436 -351 378 -626 -37 -173 -172
-326 -344 -390 -59 -23 -68 -23 -597 -26 -296 -2 -538 -6 -538 -10 0 -4 322
-329 716 -723 l717 -717 111 30 c797 213 1393 894 1501 1716 30 223 15 521
-35 737 -98 417 -332 804 -655 1082 -252 218 -531 363 -850 443 -238 60 -225
60 -1648 60 l-1298 0 28 -34z"/>
<path d="M8447 5598 l1701 -1701 564 12 c309 6 617 13 683 16 66 2 291 7 500
11 209 4 384 9 389 12 4 2 -745 758 -1665 1678 l-1674 1674 -1100 0 -1100 0
1702 -1702z"/>
<path d="M5667 5603 c-4 -3 -7 -13 -7 -21 0 -12 3 -12 15 -2 8 7 15 16 15 21
0 11 -14 12 -23 2z"/>
</g>
</svg>
